<?xml version="1.0" encoding="utf-8"?>
<!-- Generator: Adobe Illustrator 21.1.0, SVG Export Plug-In . SVG Version: 6.00 Build 0)  -->
<svg version="1.1" xmlns="http://www.w3.org/2000/svg" xmlns:xlink="http://www.w3.org/1999/xlink" x="0px" y="0px"
	 viewBox="0 0 216.1 120" style="enable-background:new 0 0 216.1 120;" xml:space="preserve">
<style type="text/css">
	.st0{display:none;}
	.st1{display:inline;}
	.st2{fill:#515151;}
	.st3{fill:#F83A4B;}
	.st4{fill:#FFFFFF;}
	.st5{display:inline;fill:#F83A4B;}
	.st6{display:inline;fill:#FFFFFF;}
	.st7{display:inline;fill:#515151;}
</style>
<g id="Layer_1" class="st0">
	<g id="zSHFW0.tif_4_" class="st1">
		<g>
			<path class="st2" d="M37.5,71.1c-2.3,0-4.3,0.1-6.4,0c-3.6-0.1-6.5-2.8-6.7-6.3c-0.2-6.4-0.1-12.9-0.1-19.2
				c9.1-3.6,13.8-9.8,13.9-18.1c0.1-6.8-2.6-12.2-8.3-16.2c-1.7,2.6-3.3,5-4.8,7.3c6.1,5.3,4.8,12.3,1.2,15.8
				c-3.7,3.6-9.5,3.6-13.2-0.2c-4.4-4.4-3.9-10.5,1.4-15.7c-1.7-2.4-3.3-4.8-4.9-7.2c-6,4.5-8.9,10.3-8.2,17.5
				c0.7,7.5,4.7,13,11.7,15.8c1.9,0.8,2.4,1.7,2.3,3.5c-0.1,5.1,0,10.1,0,15.2c0,9.9,6.6,16.6,16.5,16.7c1.4,0,2.9,0,4.4,0
				C36.3,77.1,36.7,74.1,37.5,71.1z"/>
			<path class="st2" d="M213.4,25.5c-0.5-6-3.2-10.8-8.3-14.3c-1.7,2.6-3.3,4.9-4.9,7.2c5.1,5,5.7,11,1.7,15.4
				c-3.5,3.8-9,4.2-13,0.9c-4.7-3.9-4.5-9.7,0.6-16.4c-1.6-2.3-3.1-4.7-4.8-7.1c-6,4.5-8.8,10.3-8.2,17.5
				c0.8,8.5,5.7,13.9,13.8,16.8c0,6.4,0.1,12.9-0.1,19.3c-0.1,3.2-2.7,5.8-5.7,6.2c-0.6,0.1-1.3,0.1-1.9,0.1c0.7,2.9,1,5.8,1.2,8.7
				c0,0.1,0,0.2,0,0.2c8.8-0.3,15.4-7.1,15.4-16c0-5.5,0.1-10.9,0-16.4c0-1.5,0.3-2.2,1.9-2.8C209.3,41.8,214.2,34,213.4,25.5z"/>
			<path class="st2" d="M37.5,71.1c-2.3,0-4.3,0.1-6.4,0c-3.6-0.1-6.5-2.8-6.7-6.3c-0.2-6.4-0.1-12.9-0.1-19.2
				c9.1-3.6,13.8-9.8,13.9-18.1c0.1-6.8-2.6-12.2-8.3-16.2c-1.7,2.6-3.3,5-4.8,7.3c6.1,5.3,4.8,12.3,1.2,15.8
				c-3.7,3.6-9.5,3.6-13.2-0.2c-4.4-4.4-3.9-10.5,1.4-15.7c-1.7-2.4-3.3-4.8-4.9-7.2c-6,4.5-8.9,10.3-8.2,17.5
				c0.7,7.5,4.7,13,11.7,15.8c1.9,0.8,2.4,1.7,2.3,3.5c-0.1,5.1,0,10.1,0,15.2c0,9.9,6.6,16.6,16.5,16.7c1.4,0,2.9,0,4.4,0
				C36.3,77.1,36.7,74.1,37.5,71.1z"/>
			<path class="st2" d="M213.4,25.5c-0.5-6-3.2-10.8-8.3-14.3c-1.7,2.6-3.3,4.9-4.9,7.2c5.1,5,5.7,11,1.7,15.4
				c-3.5,3.8-9,4.2-13,0.9c-4.7-3.9-4.5-9.7,0.6-16.4c-1.6-2.3-3.1-4.7-4.8-7.1c-6,4.5-8.8,10.3-8.2,17.5
				c0.8,8.5,5.7,13.9,13.8,16.8c0,6.4,0.1,12.9-0.1,19.3c-0.1,3.2-2.7,5.8-5.7,6.2c-0.6,0.1-1.3,0.1-1.9,0.1c0.7,2.9,1,5.8,1.2,8.7
				c0,0.1,0,0.2,0,0.2c8.8-0.3,15.4-7.1,15.4-16c0-5.5,0.1-10.9,0-16.4c0-1.5,0.3-2.2,1.9-2.8C209.3,41.8,214.2,34,213.4,25.5z"/>
		</g>
	</g>
	<g id="_x33_RPaeR.tif_3_" class="st1">
		<g>
			<path class="st3" d="M102.1,1.5c0.4-0.2,0.8-0.4,1.2-0.6c4.4-1.8,9.7-1.8,13.9,0.4c2.9,1.5,4.1,4.3,6.5,6.4
				c3.5,3.2,4.8,1.2,8.9,0.4c6.8-1.4,12.6,2.3,16.7,7.4c0.4,0.5,1.4,0.7,2,0.5c11.2-4.9,20.7,1.8,22.8,16.4
				c2.4,16.3,4.4,32.6,6.6,48.9c1,7.1,2,14.2,3,21.2c6.5,1.4,8.2,4,7.8,12c-0.5,8.2-2.7,15.7-6.7,22.2c-7.2,11.7-16.9,17-28.6,17
				c-30.1,0-60.3,0-90.4,0c-2,0-3.9-0.1-5.9-0.3c-17.4-1.9-30.6-19.6-30.9-41.3c-0.1-5.1,2-8.4,6.1-9.2c1.4-0.3,1.9-1,2.2-2.7
				c3-22.4,6-44.8,9-67.2c1.3-9.7,6-16.5,13-18.3c3.9-1,7.6-0.3,11.1,1.9C76.4,8.3,83.7,5.4,92.5,10c0.4,0.2,1.1,0.1,1.5-0.2
				C97.3,7.1,98.3,3.6,102.1,1.5z M176.4,119.9c-44.3,0-88.5,0-132.9,0c0.2,0.8,0.4,1.3,0.6,1.8c4.1,10.4,10.9,15.1,20.1,15.1
				c30.6,0,61.2,0,91.8,0c0.9,0,1.9,0,2.8-0.1C166.8,136.1,174.5,128.9,176.4,119.9z M147.5,102.6c0-0.5,0-0.9,0-1.3
				c-2.2-23.1-4.3-46.3-6.7-69.4c-0.2-2.2-1.5-4.6-2.8-6.1c-2.4-2.6-5.1-1.2-5.8,2.7c-0.2,1.3-0.2,2.7-0.1,4.1
				c0.4,13.7,0.9,27.4,1.4,41.1c0.3,9.6,0.6,19.1,0.9,28.8C138.9,102.6,143.2,102.6,147.5,102.6z M85.6,102.7
				c0.1-0.5,0.2-0.7,0.2-0.9c0.7-20.9,1.3-41.9,2-62.8c0.1-3.4,0.3-6.9,0-10.3c-0.3-3.8-2.7-5-5.4-3.1c-2,1.4-2.9,3.6-3.2,6.4
				c-1.8,19-3.6,37.9-5.4,56.9c-0.4,4.5-0.8,9.1-1.2,13.7C77.1,102.7,81.3,102.7,85.6,102.7z"/>
			<path class="st4" d="M176.4,119.9c-1.9,8.9-9.6,16.2-17.7,16.8c-0.9,0.1-1.9,0.1-2.8,0.1c-30.6,0-61.2,0-91.8,0
				c-9.2,0-16-4.7-20.1-15.1c-0.2-0.5-0.3-1.1-0.6-1.8C87.9,119.9,132.1,119.9,176.4,119.9z"/>
			<path class="st4" d="M147.5,102.6c-4.4,0-8.6,0-13.2,0c-0.3-9.7-0.6-19.2-0.9-28.8c-0.4-13.7-0.9-27.4-1.4-41.1
				c0-1.4-0.1-2.8,0.1-4.1c0.7-3.9,3.3-5.4,5.8-2.7c1.4,1.5,2.6,3.9,2.8,6.1c2.4,23.1,4.5,46.2,6.7,69.4
				C147.5,101.7,147.5,102.1,147.5,102.6z"/>
			<path class="st4" d="M85.6,102.7c-4.3,0-8.5,0-13,0c0.4-4.7,0.8-9.2,1.2-13.7C75.6,70,77.5,51,79.2,32c0.3-2.8,1.2-5,3.2-6.4
				c2.7-1.9,5-0.7,5.4,3.1c0.3,3.4,0.1,6.8,0,10.3c-0.6,20.9-1.3,41.9-2,62.8C85.8,102,85.7,102.1,85.6,102.7z"/>
		</g>
	</g>
	<polygon class="st5" points="61.4,22.1 160.2,22.1 169,106.8 51.4,106.8 	"/>
	<rect x="-72" y="115.5" class="st6" width="395.1" height="45.9"/>
	<path class="st6" d="M86.6,34.1c5.1,0,9.2,4.1,9.2,9.2s-4.1,9.2-9.2,9.2c-5.1,0-9.2-4.1-9.2-9.2S81.5,34.1,86.6,34.1L86.6,34.1z
		 M86.6,30.7c-6.9,0-12.5,5.6-12.5,12.5s5.6,12.5,12.5,12.5c6.9,0,12.5-5.6,12.5-12.5S93.5,30.7,86.6,30.7L86.6,30.7z"/>
	<path class="st6" d="M130.5,34.1c5.1,0,9.2,4.1,9.2,9.2s-4.1,9.2-9.2,9.2c-5.1,0-9.2-4.1-9.2-9.2S125.4,34.1,130.5,34.1L130.5,34.1
		z M130.5,30.7c-6.9,0-12.5,5.6-12.5,12.5s5.6,12.5,12.5,12.5c6.9,0,12.5-5.6,12.5-12.5S137.4,30.7,130.5,30.7L130.5,30.7z"/>
	<path class="st6" d="M156.7,19.8c0,0,11.8-0.6,14.7,17.1h-3.5c0,0-4.1-12.4-11.2-13.5V19.8z"/>
	<rect x="149" y="19.8" class="st6" width="4.7" height="4.7"/>
	<g class="st1">
		<rect x="78.4" y="73.3" class="st4" width="13.5" height="13.5"/>
		<path class="st3" d="M90.8,74.5v11.2H79.6V74.5H90.8L90.8,74.5z M92,73.3H78.4v13.5H92V73.3L92,73.3z"/>
	</g>
	<g class="st1">
		<rect x="94.9" y="73.3" class="st4" width="13.5" height="13.5"/>
		<path class="st3" d="M107.3,74.5v11.2H96.1V74.5H107.3L107.3,74.5z M108.4,73.3H94.9v13.5h13.5V73.3L108.4,73.3z"/>
	</g>
	<g class="st1">
		<rect x="111.4" y="73.3" class="st4" width="13.5" height="13.5"/>
		<path class="st3" d="M123.7,74.5v11.2h-11.2V74.5H123.7L123.7,74.5z M124.9,73.3h-13.5v13.5h13.5V73.3L124.9,73.3z"/>
	</g>
	<g class="st1">
		<rect x="127.8" y="73.3" class="st4" width="13.5" height="13.5"/>
		<path class="st3" d="M140.2,74.5v11.2H129V74.5H140.2L140.2,74.5z M141.4,73.3h-13.5v13.5h13.5V73.3L141.4,73.3z"/>
	</g>
	<path class="st6" d="M188.1,115.1H32.3c-2.9,0-5.3-2.4-5.3-5.3v-2.9c0-2.9,2.4-5.3,5.3-5.3h155.9c2.9,0,5.3,2.4,5.3,5.3v2.9
		C193.4,112.7,191.1,115.1,188.1,115.1z"/>
	<path class="st7" d="M188.1,119.8H32.3c-2.9,0-5.3-2.4-5.3-5.3v-2.9c0-2.9,2.4-5.3,5.3-5.3h155.9c2.9,0,5.3,2.4,5.3,5.3v2.9
		C193.4,117.4,191.1,119.8,188.1,119.8z"/>
</g>
<g id="Layer_2">
	<g>
		<path class="st3" d="M181.2,102.7H34.9L38,80l1.2-9l3.7-27c0.3-2.3,0.5-4.6,0.8-7l0.4-3.6c1.3-12.5,7.7-20.2,16.5-20.2
			c1.8,0,4.8,0.4,7.7,2.5c3.5-5.6,8.9-9.1,14.8-9.1c3.2,0,6,1,8.4,2.8C95.7,3.6,102.1,0,108,0s12.3,3.6,16.6,9.5
			c2.4-1.8,5.2-2.8,8.4-2.8c6,0,11.3,3.5,14.8,9.1c2.9-2.1,5.8-2.5,7.7-2.5c8.8,0,15.2,7.7,16.5,20.2l0.4,3.6c0.2,2.3,0.5,4.7,0.8,7
			L181.2,102.7z"/>
		<g>
			<path class="st4" d="M86.1,34.1c5.1,0,9.2,4.1,9.2,9.2s-4.1,9.2-9.2,9.2c-5.1,0-9.2-4.1-9.2-9.2S81.1,34.1,86.1,34.1L86.1,34.1z
				 M86.1,30.7c-6.9,0-12.5,5.6-12.5,12.5s5.6,12.5,12.5,12.5c6.9,0,12.5-5.6,12.5-12.5S93,30.7,86.1,30.7L86.1,30.7z"/>
			<path class="st4" d="M130,34.1c5.1,0,9.2,4.1,9.2,9.2s-4.1,9.2-9.2,9.2c-5.1,0-9.2-4.1-9.2-9.2S124.9,34.1,130,34.1L130,34.1z
				 M130,30.7c-6.9,0-12.5,5.6-12.5,12.5s5.6,12.5,12.5,12.5c6.9,0,12.5-5.6,12.5-12.5S136.9,30.7,130,30.7L130,30.7z"/>
		</g>
		<g>
			<g>
				<path class="st2" d="M29.9,71h6l-1.2,9h-4.7c-8.7,0-15.8-7.2-15.8-16.2V45.3C6,43.3,0,35.8,0,26.9c0-6.4,3.1-12.3,8.4-15.8
					l5,7.4c-2.8,1.8-4.4,5-4.4,8.4c0,5.5,4.3,10,9.6,10c5.3,0,9.6-4.5,9.6-10c0-3.4-1.6-6.5-4.4-8.4l5-7.4c5.3,3.5,8.3,9.4,8.3,15.8
					c0,8.9-6,16.3-14,18.4v18.5C23,67.8,26.1,71,29.9,71z"/>
			</g>
			<g>
				<path class="st2" d="M186.2,71h-6l1.2,9h4.7c8.7,0,15.8-7.2,15.8-16.2V45.3c8.1-2,14.1-9.5,14.1-18.4c0-6.4-3.1-12.3-8.4-15.8
					l-5,7.4c2.8,1.8,4.4,5,4.4,8.4c0,5.5-4.3,10-9.6,10c-5.3,0-9.6-4.5-9.6-10c0-3.4,1.6-6.5,4.4-8.4l-5-7.4
					c-5.3,3.5-8.3,9.4-8.3,15.8c0,8.9,6,16.3,14,18.4v18.5C193,67.8,190,71,186.2,71z"/>
			</g>
		</g>
		<g>
			<path class="st4" d="M138,76.6v6.8c0,1-0.8,1.8-1.8,1.8h-6.3c-1,0-1.8-0.8-1.8-1.8v-6.8c0-1,0.8-1.8,1.8-1.8h6.3
				C137.2,74.8,138,75.6,138,76.6z"/>
			<path class="st4" d="M121.4,76.6v6.8c0,1-0.8,1.8-1.8,1.8h-6.3c-1,0-1.8-0.8-1.8-1.8v-6.8c0-1,0.8-1.8,1.8-1.8h6.3
				C120.5,74.8,121.4,75.6,121.4,76.6z"/>
			<path class="st4" d="M104.7,76.6v6.8c0,1-0.8,1.8-1.8,1.8h-6.2c-1,0-1.8-0.8-1.8-1.8v-6.8c0-1,0.8-1.8,1.8-1.8h6.2
				C103.8,74.8,104.7,75.6,104.7,76.6z"/>
			<path class="st4" d="M88,76.6v6.8c0,1-0.8,1.8-1.8,1.8h-6.3c-1,0-1.8-0.8-1.8-1.8v-6.8c0-1,0.8-1.8,1.8-1.8h6.3
				C87.2,74.8,88,75.6,88,76.6z"/>
		</g>
		<path class="st2" d="M185.8,120H30.3c-2.9,0-5.2-2.3-5.2-5.2v-3.5c0-2.9,2.3-5.2,5.2-5.2h155.5c2.9,0,5.2,2.3,5.2,5.2v3.5
			C191,117.7,188.7,120,185.8,120z"/>
	</g>
	<path class="st4" d="M166.4,41l-1.6,0c-0.6,0-1.1-0.5-1.2-1.1c-0.2-5.1-2.2-9.7-5.5-12.6c-0.5-0.4-0.5-1.1-0.2-1.6l1-1.3
		c0.4-0.6,1.2-0.6,1.8-0.2c4.2,3.6,6.8,9.4,6.9,15.6C167.7,40.5,167.1,41.1,166.4,41z"/>
	<path class="st4" d="M153,24.6c-0.5-0.1-0.9-0.2-1.4-0.2c-0.6-0.1-1.1-0.6-1.1-1.2l0-1.6c0-0.7,0.6-1.3,1.3-1.2
		c0.7,0.1,1.5,0.2,2.2,0.3c0.7,0.2,1.1,0.9,0.9,1.5l-0.5,1.5C154.2,24.4,153.6,24.7,153,24.6z"/>
</g>
</svg>
