<?xml version="1.0" encoding="utf-8"?>
<!-- Generator: Adobe Illustrator 21.1.0, SVG Export Plug-In . SVG Version: 6.00 Build 0)  -->
<svg version="1.1" id="Layer_1" xmlns="http://www.w3.org/2000/svg" xmlns:xlink="http://www.w3.org/1999/xlink" x="0px" y="0px"
	 viewBox="0 0 349.4 68.4" style="enable-background:new 0 0 349.4 68.4;" xml:space="preserve">
<style type="text/css">
	.st0{display:none;}
	.st1{display:inline;}
	.st2{fill:#515151;}
	.st3{fill:#F83A4B;}
	.st4{fill:#FFFFFF;}
	.st5{display:inline;fill:#F83A4B;}
	.st6{display:inline;fill:#FFFFFF;}
	.st7{display:inline;fill:#515151;}
</style>
<g id="Layer_1_1_" class="st0">
	<g id="zSHFW0.tif_4_" class="st1">
		<g>
			<path class="st2" d="M124.4-12.6c-2.3,0-4.3,0.1-6.4,0c-3.6-0.1-6.5-2.8-6.7-6.3c-0.2-6.4-0.1-12.9-0.1-19.2
				c9.1-3.6,13.8-9.8,13.9-18.1c0.1-6.8-2.6-12.2-8.3-16.2c-1.7,2.6-3.3,5-4.8,7.3c6.1,5.3,4.8,12.3,1.2,15.8
				c-3.7,3.6-9.5,3.6-13.2-0.2c-4.4-4.4-3.9-10.5,1.4-15.7c-1.7-2.4-3.3-4.8-4.9-7.2c-6,4.5-8.9,10.3-8.2,17.5
				c0.7,7.5,4.7,13,11.7,15.8c1.9,0.8,2.4,1.7,2.3,3.5c-0.1,5.1,0,10.1,0,15.2c0,9.9,6.6,16.6,16.5,16.7c1.4,0,2.9,0,4.4,0
				C123.2-6.6,123.6-9.6,124.4-12.6z"/>
			<path class="st2" d="M300.3-58.2c-0.5-6-3.2-10.8-8.3-14.3c-1.7,2.6-3.3,4.9-4.9,7.2c5.1,5,5.7,11,1.7,15.4
				c-3.5,3.8-9,4.2-13,0.9c-4.7-3.9-4.5-9.7,0.6-16.4c-1.6-2.3-3.1-4.7-4.8-7.1c-6,4.5-8.8,10.3-8.2,17.5
				c0.8,8.5,5.7,13.9,13.8,16.8c0,6.4,0.1,12.9-0.1,19.3c-0.1,3.2-2.7,5.8-5.7,6.2c-0.6,0.1-1.3,0.1-1.9,0.1c0.7,2.9,1,5.8,1.2,8.7
				c0,0.1,0,0.2,0,0.2c8.8-0.3,15.4-7.1,15.4-16c0-5.5,0.1-10.9,0-16.4c0-1.5,0.3-2.2,1.9-2.8C296.2-41.9,301-49.7,300.3-58.2z"/>
			<path class="st2" d="M124.4-12.6c-2.3,0-4.3,0.1-6.4,0c-3.6-0.1-6.5-2.8-6.7-6.3c-0.2-6.4-0.1-12.9-0.1-19.2
				c9.1-3.6,13.8-9.8,13.9-18.1c0.1-6.8-2.6-12.2-8.3-16.2c-1.7,2.6-3.3,5-4.8,7.3c6.1,5.3,4.8,12.3,1.2,15.8
				c-3.7,3.6-9.5,3.6-13.2-0.2c-4.4-4.4-3.9-10.5,1.4-15.7c-1.7-2.4-3.3-4.8-4.9-7.2c-6,4.5-8.9,10.3-8.2,17.5
				c0.7,7.5,4.7,13,11.7,15.8c1.9,0.8,2.4,1.7,2.3,3.5c-0.1,5.1,0,10.1,0,15.2c0,9.9,6.6,16.6,16.5,16.7c1.4,0,2.9,0,4.4,0
				C123.2-6.6,123.6-9.6,124.4-12.6z"/>
			<path class="st2" d="M300.3-58.2c-0.5-6-3.2-10.8-8.3-14.3c-1.7,2.6-3.3,4.9-4.9,7.2c5.1,5,5.7,11,1.7,15.4
				c-3.5,3.8-9,4.2-13,0.9c-4.7-3.9-4.5-9.7,0.6-16.4c-1.6-2.3-3.1-4.7-4.8-7.1c-6,4.5-8.8,10.3-8.2,17.5
				c0.8,8.5,5.7,13.9,13.8,16.8c0,6.4,0.1,12.9-0.1,19.3c-0.1,3.2-2.7,5.8-5.7,6.2c-0.6,0.1-1.3,0.1-1.9,0.1c0.7,2.9,1,5.8,1.2,8.7
				c0,0.1,0,0.2,0,0.2c8.8-0.3,15.4-7.1,15.4-16c0-5.5,0.1-10.9,0-16.4c0-1.5,0.3-2.2,1.9-2.8C296.2-41.9,301-49.7,300.3-58.2z"/>
		</g>
	</g>
	<g id="_x33_RPaeR.tif_3_" class="st1">
		<g>
			<path class="st3" d="M189-82.2c0.4-0.2,0.8-0.4,1.2-0.6c4.4-1.8,9.7-1.8,13.9,0.4c2.9,1.5,4.1,4.3,6.5,6.4
				c3.5,3.2,4.8,1.2,8.9,0.4c6.8-1.4,12.6,2.3,16.7,7.4c0.4,0.5,1.4,0.7,2,0.5c11.2-4.9,20.7,1.8,22.8,16.4
				c2.4,16.3,4.4,32.6,6.6,48.9c1,7.1,2,14.2,3,21.2c6.5,1.4,8.2,4,7.8,12c-0.5,8.2-2.7,15.7-6.7,22.2c-7.2,11.7-16.9,17-28.6,17
				c-30.1,0-60.3,0-90.4,0c-2,0-3.9-0.1-5.9-0.3c-17.4-1.9-30.6-19.6-30.9-41.3c-0.1-5.1,2-8.4,6.1-9.2c1.4-0.3,1.9-1,2.2-2.7
				c3-22.4,6-44.8,9-67.2c1.3-9.7,6-16.5,13-18.3c3.9-1,7.6-0.3,11.1,1.9c6.4-8.3,13.7-11.2,22.5-6.7c0.4,0.2,1.1,0.1,1.5-0.2
				C184.1-76.6,185.1-80.1,189-82.2z M263.3,36.2c-44.3,0-88.5,0-132.9,0c0.2,0.8,0.4,1.3,0.6,1.8c4.1,10.4,10.9,15.1,20.1,15.1
				c30.6,0,61.2,0,91.8,0c0.9,0,1.9,0,2.8-0.1C253.7,52.4,261.4,45.2,263.3,36.2z M234.4,18.9c0-0.5,0-0.9,0-1.3
				c-2.2-23.1-4.3-46.3-6.7-69.4c-0.2-2.2-1.5-4.6-2.8-6.1c-2.4-2.6-5.1-1.2-5.8,2.7c-0.2,1.3-0.2,2.7-0.1,4.1
				c0.4,13.7,0.9,27.4,1.4,41.1c0.3,9.6,0.6,19.1,0.9,28.8C225.7,18.9,230,18.9,234.4,18.9z M172.4,19c0.1-0.5,0.2-0.7,0.2-0.9
				c0.7-20.9,1.3-41.9,2-62.8c0.1-3.4,0.3-6.9,0-10.3c-0.3-3.8-2.7-5-5.4-3.1c-2,1.4-2.9,3.6-3.2,6.4c-1.8,19-3.6,37.9-5.4,56.9
				c-0.4,4.5-0.8,9.1-1.2,13.7C164,19,168.2,19,172.4,19z"/>
			<path class="st4" d="M263.3,36.2c-1.9,8.9-9.6,16.2-17.7,16.8c-0.9,0.1-1.9,0.1-2.8,0.1c-30.6,0-61.2,0-91.8,0
				c-9.2,0-16-4.7-20.1-15.1c-0.2-0.5-0.3-1.1-0.6-1.8C174.7,36.2,218.9,36.2,263.3,36.2z"/>
			<path class="st4" d="M234.4,18.9c-4.4,0-8.6,0-13.2,0c-0.3-9.7-0.6-19.2-0.9-28.8c-0.4-13.7-0.9-27.4-1.4-41.1
				c0-1.4-0.1-2.8,0.1-4.1c0.7-3.9,3.3-5.4,5.8-2.7c1.4,1.5,2.6,3.9,2.8,6.1c2.4,23.1,4.5,46.2,6.7,69.4
				C234.4,18,234.4,18.4,234.4,18.9z"/>
			<path class="st4" d="M172.4,19c-4.3,0-8.5,0-13,0c0.4-4.7,0.8-9.2,1.2-13.7c1.8-19,3.7-37.9,5.4-56.9c0.3-2.8,1.2-5,3.2-6.4
				c2.7-1.9,5-0.7,5.4,3.1c0.3,3.4,0.1,6.8,0,10.3c-0.6,20.9-1.3,41.9-2,62.8C172.7,18.3,172.6,18.4,172.4,19z"/>
		</g>
	</g>
	<polygon class="st5" points="148.2,-61.6 247,-61.6 255.9,23.1 138.2,23.1 	"/>
	<rect x="14.8" y="31.8" class="st6" width="395.1" height="45.9"/>
	<path class="st6" d="M173.4-49.6c5.1,0,9.2,4.1,9.2,9.2s-4.1,9.2-9.2,9.2s-9.2-4.1-9.2-9.2C164.3-45.5,168.4-49.6,173.4-49.6
		L173.4-49.6z M173.4-53c-6.9,0-12.5,5.6-12.5,12.5S166.5-28,173.4-28s12.5-5.6,12.5-12.5C186-47.3,180.4-53,173.4-53L173.4-53z"/>
	<path class="st6" d="M217.3-49.6c5.1,0,9.2,4.1,9.2,9.2s-4.1,9.2-9.2,9.2s-9.2-4.1-9.2-9.2C208.2-45.5,212.3-49.6,217.3-49.6
		L217.3-49.6z M217.3-53c-6.9,0-12.5,5.6-12.5,12.5S210.4-28,217.3-28s12.5-5.6,12.5-12.5C229.8-47.3,224.2-53,217.3-53L217.3-53z"
		/>
	<path class="st6" d="M243.5-63.9c0,0,11.8-0.6,14.7,17.1h-3.5c0,0-4.1-12.4-11.2-13.5V-63.9z"/>
	<rect x="235.9" y="-63.9" class="st6" width="4.7" height="4.7"/>
	<g class="st1">
		<rect x="165.3" y="-10.4" class="st4" width="13.5" height="13.5"/>
		<path class="st3" d="M177.6-9.2V2h-11.2V-9.2H177.6L177.6-9.2z M178.8-10.4h-13.5V3.1h13.5V-10.4L178.8-10.4z"/>
	</g>
	<g class="st1">
		<rect x="181.7" y="-10.4" class="st4" width="13.5" height="13.5"/>
		<path class="st3" d="M194.1-9.2V2h-11.2V-9.2H194.1L194.1-9.2z M195.3-10.4h-13.5V3.1h13.5V-10.4L195.3-10.4z"/>
	</g>
	<g class="st1">
		<rect x="198.2" y="-10.4" class="st4" width="13.5" height="13.5"/>
		<path class="st3" d="M210.6-9.2V2h-11.2V-9.2H210.6L210.6-9.2z M211.7-10.4h-13.5V3.1h13.5V-10.4L211.7-10.4z"/>
	</g>
	<g class="st1">
		<rect x="214.7" y="-10.4" class="st4" width="13.5" height="13.5"/>
		<path class="st3" d="M227-9.2V2h-11.1V-9.2H227L227-9.2z M228.2-10.4h-13.5V3.1h13.5V-10.4L228.2-10.4z"/>
	</g>
	<path class="st6" d="M275,31.4H119.1c-2.9,0-5.3-2.4-5.3-5.3v-2.9c0-2.9,2.4-5.3,5.3-5.3H275c2.9,0,5.3,2.4,5.3,5.3v2.9
		C280.3,29,277.9,31.4,275,31.4z"/>
	<path class="st7" d="M275,36.1H119.1c-2.9,0-5.3-2.4-5.3-5.3v-2.9c0-2.9,2.4-5.3,5.3-5.3H275c2.9,0,5.3,2.4,5.3,5.3v2.9
		C280.3,33.7,277.9,36.1,275,36.1z"/>
</g>
<g>
	<path class="st3" d="M0,34.9h7.3v2.2c0,7.2,4.2,9.6,8.4,9.6c4.1,0,8.2-2.4,8.2-9.3v-31H10.6V0h20.7v37.5c0,11.4-8,16-15.7,16
		S0,48.8,0,37.5V34.9z"/>
	<path class="st3" d="M59.7,14.1C70.4,14.1,76,22,76,31.8c0,1-0.2,3.1-0.2,3.1H48.3c0.4,8.3,6.3,12.5,13,12.5
		c6.5,0,11.2-4.4,11.2-4.4l3,5.3c0,0-5.6,5.4-14.6,5.4c-11.9,0-20-8.6-20-19.8C40.9,21.8,49,14.1,59.7,14.1z M68.7,29.4
		c-0.2-6.5-4.3-9.6-9.1-9.6c-5.5,0-10,3.4-11,9.6H68.7z"/>
	<path class="st3" d="M84.4,0h7.2v41.1c0,4.5,1.8,5.4,4,5.4c0.7,0,1.3-0.1,1.3-0.1v6.4c0,0-1.1,0.1-2.4,0.1
		c-4.1,0-10.1-1.1-10.1-10.6V0z"/>
	<path class="st3" d="M104.2,0h7.2v41.1c0,4.5,1.8,5.4,4,5.4c0.7,0,1.3-0.1,1.3-0.1v6.4c0,0-1.1,0.1-2.4,0.1
		c-4.1,0-10.1-1.1-10.1-10.6V0z"/>
	<path class="st3" d="M121.6,60.5c0,0,2.1,1.6,4.4,1.6c2.9,0,5.4-2.1,6.8-5.5l1.9-4.3L118.9,15h8.1l9.5,24.7
		c0.7,1.9,1.4,4.5,1.4,4.5h0.1c0,0,0.6-2.5,1.3-4.5l9.2-24.8h7.8l-17.7,44.6c-2.3,5.8-6.9,8.9-12.2,8.9c-4.3,0-7.3-2.3-7.3-2.3
		L121.6,60.5z"/>
	<path class="st2" d="M164.8,0.5h15.3c4.8,0,7.3,0.5,9.4,1.6c4.3,2.2,7.2,6.6,7.2,12.5c0,7.5-4.3,13.1-10.4,14.4v0.1
		c0,0,0.5,0.6,1.2,1.9l11.7,21.7h-3.8L183,29.6h-15v23.1h-3.2L164.8,0.5L164.8,0.5z M182.2,26.6c6.9,0,11.2-4.9,11.2-12
		c0-4.6-2.3-8.4-6.1-10.1c-1.5-0.7-3.1-1-7.3-1h-11.9v23.1H182.2z"/>
	<path class="st2" d="M221.4,14.5c10.7,0,19.3,8.4,19.3,19.3c0,11.1-8.7,19.8-19.3,19.8c-10.7,0-19.3-8.7-19.3-19.8
		C202,22.9,210.7,14.5,221.4,14.5z M221.4,50.5c8.9,0,16-7.2,16-16.7c0-9.2-7.2-16.3-16-16.3c-8.9,0-16,7-16,16.3
		C205.3,43.3,212.5,50.5,221.4,50.5z"/>
	<path class="st2" d="M248.1,0.5h3.1v19.4c0,1.7-0.3,3.1-0.3,3.1h0.1c0,0,3.2-8.4,13.5-8.4c10,0,16.1,8,16.1,19.5
		c0,11.9-6.9,19.5-16.7,19.5c-9.4,0-12.9-8.4-12.9-8.4h-0.1c0,0,0.3,1.3,0.3,3.3v4.3h-3.1L248.1,0.5L248.1,0.5z M264.1,50.5
		c7.3,0,13.3-6,13.3-16.5c0-10.1-5.4-16.5-13-16.5c-6.9,0-13.3,4.8-13.3,16.6C251.1,42.4,255.4,50.5,264.1,50.5z"/>
	<path class="st2" d="M306.3,14.5c10.7,0,19.3,8.4,19.3,19.3c0,11.1-8.7,19.8-19.3,19.8c-10.7,0-19.3-8.7-19.3-19.8
		C287,22.9,295.6,14.5,306.3,14.5z M306.3,50.5c8.9,0,16-7.2,16-16.7c0-9.2-7.2-16.3-16-16.3c-8.9,0-16,7-16,16.3
		C290.3,43.3,297.4,50.5,306.3,50.5z"/>
	<path class="st2" d="M335.7,18.5h-4.9v-2.8h4.9V5.1h3.1v10.6h9.8v2.8h-9.8V39c0,9.8,5.9,11.1,8.9,11.1c1,0,1.7-0.1,1.7-0.1v2.9
		c0,0-0.7,0.1-1.9,0.1c-3.9,0-11.9-1.4-11.9-13.8V18.5H335.7z"/>
</g>
</svg>
